# xmcd
#
# Track frame offsets:
#	150
#	7767
#	15551
#	20883
#	32985
#	43221
#	52119
#	66423
#	77773
#	86755
#	101588
#	109595
#	120778
#	130094
#
# Disc length: 1802 seconds
#
# Revision: 0
# Processed by: cddbd v1.5.2PL0 Copyright (c) Steve Scherf et al.
# Submitted via: EasyCDDAExtractor 16.0.6.1
#
DISCID=b107080e
DTITLE=Μαΐστορες της Μακεδονίας - Συναυλία αίθουσα τελετ. ΑΠΘ-Μαΐστορες Μακεδο
DTITLE=νίας
DYEAR=1990
DGENRE=Παραδοσιακή
TTITLE0=Ας τραγουδήσω
TTITLE1=Ο σπίνος
TTITLE2=Η λεβεντιά
TTITLE3=Χαρά που τό 'χουν τα βουνά
TTITLE4=Παιδιά μ' σαν θέλτε
TTITLE5=Αγρίμια κι αγριμάκια
TTITLE6=Στην Αγια-Σοφιά
TTITLE7=Σαγγάριος Σμύρνης
TTITLE8=Παπαλάμπραινα
TTITLE9=Μακεδονικός
TTITLE10=Ξενητεμένο μου πουλί
TTITLE11=Χάραμα
TTITLE12=Μακεδονία ξακουστή
TTITLE13=Εθνικός ύμνος
EXTD=
EXTT0=
EXTT1=
EXTT2=
EXTT3=
EXTT4=
EXTT5=
EXTT6=
EXTT7=
EXTT8=
EXTT9=
EXTT10=
EXTT11=
EXTT12=
EXTT13=
PLAYORDER=
